<?xml version="1.0" standalone="no"?>
<!DOCTYPE svg PUBLIC "-//W3C//DTD SVG 20010904//EN"
 "http://www.w3.org/TR/2001/REC-SVG-20010904/DTD/svg10.dtd">
<svg version="1.0" xmlns="http://www.w3.org/2000/svg"
 width="266.000000pt" height="266.000000pt" viewBox="0 0 266.000000 266.000000"
 preserveAspectRatio="xMidYMid meet">
<metadata>
Created by potrace 1.14, written by Peter Selinger 2001-2017
</metadata>
<g transform="translate(0.000000,266.000000) scale(0.100000,-0.100000)"
fill="#000000" stroke="none">
<path d="M2382 2305 c-11 -14 -19 -33 -17 -43 2 -9 4 -20 4 -24 2 -17 35 -38
62 -38 56 0 86 66 47 107 -29 31 -71 30 -96 -2z"/>
<path d="M1977 2232 c-33 -36 -15 -85 34 -97 53 -13 85 57 47 102 -15 19 -62
16 -81 -5z"/>
<path d="M1904 1996 c-73 -26 -113 -84 -110 -156 3 -87 60 -146 147 -155 80
-8 165 56 171 128 3 33 14 35 22 4 6 -27 54 -57 90 -57 36 0 86 48 90 85 3 36
-17 81 -43 95 -31 16 -87 12 -112 -9 -13 -10 -29 -34 -35 -52 -12 -32 -13 -32
-13 -8 -3 85 -121 156 -207 125z"/>
<path d="M1162 1878 c-41 -14 -88 -66 -101 -112 -25 -93 46 -194 141 -201 128
-9 215 116 160 230 -36 73 -121 109 -200 83z"/>
<path d="M1506 1874 c-40 -40 -8 -114 49 -114 33 0 68 47 60 80 -4 13 -11 31
-17 37 -15 18 -73 16 -92 -3z"/>
<path d="M301 1809 c-58 -8 -91 -44 -92 -102 0 -23 -1 -293 -1 -599 0 -606 -2
-588 54 -620 18 -10 195 -13 798 -13 426 -1 790 3 808 8 48 12 72 57 72 132
l0 60 -93 85 -92 84 -5 73 c-5 59 -11 80 -36 115 -50 72 -147 110 -226 87 -22
-6 -34 0 -85 47 -32 30 -72 67 -89 82 -26 22 -207 188 -264 242 -9 8 -61 56
-115 105 -55 50 -102 92 -105 95 -3 3 -33 32 -68 64 l-62 59 -178 1 c-97 1
-197 -2 -221 -5z"/>
<path d="M2250 1702 c-58 -53 -39 -140 35 -161 62 -17 110 15 120 81 5 31 1
42 -22 68 -40 44 -93 49 -133 12z"/>
<path d="M1604 1697 c-75 -29 -115 -89 -109 -164 8 -103 105 -170 205 -142
123 34 156 186 60 273 -22 20 -43 36 -48 36 -4 1 -23 3 -42 5 -19 2 -49 -1
-66 -8z"/>
<path d="M2009 1530 c-66 -18 -119 -89 -119 -159 0 -84 89 -166 170 -157 14 2
33 4 42 5 29 2 96 69 104 104 13 53 13 56 3 91 -24 86 -115 139 -200 116z"/>
<path d="M1292 1503 c-93 -45 -69 -176 34 -190 33 -4 45 -1 71 21 93 78 3 222
-105 169z"/>
<path d="M1727 1242 c-10 -10 -17 -28 -17 -40 0 -26 36 -61 58 -57 9 2 20 4
24 4 16 2 38 34 38 55 0 49 -70 75 -103 38z"/>
<path d="M2648 623 c-2 -16 -1 -41 3 -58 5 -23 7 -16 8 28 1 60 -4 75 -11 30z"/>
<path d="M958 422 c-16 -2 -28 -9 -29 -15 0 -7 -2 -22 -3 -34 -2 -18 3 -23 23
-24 32 -1 269 -1 294 0 13 1 17 10 17 36 0 21 -5 35 -12 36 -43 3 -268 3 -290
1z"/>
</g>
</svg>
